<?xml version="1.0" encoding="utf-8"?>
<!-- Generator: Adobe Illustrator 28.1.0, SVG Export Plug-In . SVG Version: 6.00 Build 0)  -->
<svg version="1.1" id="Layer_1" xmlns="http://www.w3.org/2000/svg" xmlns:xlink="http://www.w3.org/1999/xlink" x="0px" y="0px"
	 viewBox="0 0 560.02 513.74" style="enable-background:new 0 0 560.02 513.74;" xml:space="preserve">
<style type="text/css">
	.st0{fill:#FBA919;}
</style>
<path class="st0" d="M531.32,401.77h4.81v15.08h1.8v-15.08h4.83v-1.6h-11.42v1.6H531.32z M553.04,411.99l-5.51-11.83h-1.78v16.68
	h1.78v-12.67l4.63,10.05h1.53l4.56-10.05v12.67h1.78v-16.68h-1.78L553.04,411.99z M507.54,393.81l-77.96-132.09l67.11-101.68
	l34.2-22.29h-98.73l12.32,18.69l-55.69,84.51v82.52l10.29-15.64c0,0,54.5,91.91,64.43,108.96h69.79L507.54,393.81z M373.14,417.27
	l-56.04,96.21V114.16h-32.97L373.14,0L373.14,417.27z M243.32,513.74l-56.04-96.52V114.12H154.3L243.32,0v513.68L243.32,513.74z
	 M171.61,294.73V172.61c-15.51,49.36-43.22,133.58-43.22,133.58S78.22,158.84,73.21,139.42c-0.28-1.06-1.25-1.8-2.35-1.78H0
	l19.01,19.03c0,13.69,0,241.07-0.22,241.77L0,417.2h93.86l0,0l-18.97-18.87c-0.14-0.66-0.22-130.57-0.22-130.57l53.64,149.46
	L171.61,294.73z"/>
</svg>
